<svg width="639" height="330" xmlns="http://www.w3.org/2000/svg" xmlns:xlink="http://www.w3.org/1999/xlink" xml:space="preserve" overflow="hidden"><defs><filter id="fx0" x="-10%" y="-10%" width="120%" height="120%" filterUnits="userSpaceOnUse" primitiveUnits="userSpaceOnUse"><feComponentTransfer color-interpolation-filters="sRGB"><feFuncR type="discrete" tableValues="0.498039 0.498039"/><feFuncG type="discrete" tableValues="0.498039 0.498039"/><feFuncB type="discrete" tableValues="0.498039 0.498039"/><feFuncA type="linear" slope="1" intercept="0"/></feComponentTransfer><feGaussianBlur stdDeviation="1.52778 1.52778"/></filter><filter id="fx1" x="-10%" y="-10%" width="120%" height="120%" filterUnits="userSpaceOnUse" primitiveUnits="userSpaceOnUse"><feComponentTransfer color-interpolation-filters="sRGB"><feFuncR type="discrete" tableValues="0.498039 0.498039"/><feFuncG type="discrete" tableValues="0.498039 0.498039"/><feFuncB type="discrete" tableValues="0.498039 0.498039"/><feFuncA type="linear" slope="1" intercept="0"/></feComponentTransfer><feGaussianBlur stdDeviation="1.52778 1.52778"/></filter><filter id="fx2" x="-10%" y="-10%" width="120%" height="120%" filterUnits="userSpaceOnUse" primitiveUnits="userSpaceOnUse"><feComponentTransfer color-interpolation-filters="sRGB"><feFuncR type="discrete" tableValues="0.498039 0.498039"/><feFuncG type="discrete" tableValues="0.498039 0.498039"/><feFuncB type="discrete" tableValues="0.498039 0.498039"/><feFuncA type="linear" slope="1" intercept="0"/></feComponentTransfer><feGaussianBlur stdDeviation="1.52778 1.52778"/></filter><clipPath id="clip3"><rect x="-1" y="1" width="159" height="109"/></clipPath><clipPath id="clip4"><rect x="1" y="1" width="157" height="111"/></clipPath><clipPath id="clip5"><rect x="-1" y="1" width="225" height="139"/></clipPath></defs><g transform="translate(-1752 -451)"><g><g><g><path d="M1999.5 570.625 1999.5 512.875 1972 512.875 1972 544.5 1917 492.25 1917 492.25 1772.63 629.75 1788.09 642.812 1917 520.438 1917 520.438 2045.91 642.812 2061.38 629.75Z" fill="#C55A11"/><path d="M1813.88 637.656 1813.88 739.75 1896.38 739.75 1896.38 653.812 1937.63 653.812 1937.63 739.75 2020.13 739.75 2020.13 637.656 1917 539.688 1813.88 637.656ZM1875.75 695.062 1834.5 695.062 1834.5 653.812 1875.75 653.812 1875.75 695.062ZM1958.25 653.812 1999.5 653.812 1999.5 695.062 1958.25 695.062 1958.25 653.812Z" fill="#C55A11"/></g></g></g><g clip-path="url(#clip3)" filter="url(#fx0)" transform="translate(2059 523)"><g><path d="M7.13574 36.3733C17.403 26.8424 27.6703 17.3115 37.9376 7.78054 49.33 17.5365 59.0298 33.1846 69.2978 51.7429 70.9942 54.6464 74.0495 62.5302 79.0205 75.8423 79.1031 76.0888 79.1633 76.3447 79.2548 76.5904 81.1784 70.9308 84.0949 62.3086 89.6772 52.1703 99.662 33.6571 109.046 17.9922 120.107 7.9533 130.312 17.4266 140.517 26.9 150.723 36.3733 150.723 58.5882 150.723 80.803 150.723 103.018 143.867 103.018 137.012 103.018 130.157 103.018 130.157 84.0738 130.157 65.1297 130.157 46.1856 130.157 43.6705 130.209 41.1864 130.343 38.7398 130.476 36.3 130.584 33.8555 130.715 31.4091 129.237 32.8646 128.13 34.216 127.179 35.2143 126.212 36.2301 124.242 38.5835 121.037 42.3122 108.418 56.7838 98.1117 78.0456 87.8161 103.018 84.8731 103.018 81.9302 103.018 78.9873 103.018 76.2227 103.018 73.4582 103.018 70.6936 103.018 60.0438 77.6701 49.3317 56.1926 36.2626 41.9148 32.5772 37.7884 29.6845 34.2115 27.143 31.4091 27.2741 33.8151 27.3686 36.2201 27.4687 38.6205 27.569 41.0259 27.6083 43.4872 27.6083 45.9997 27.6083 65.0058 27.6083 84.0118 27.6083 103.018 20.7841 103.018 13.9599 103.018 7.13574 103.018 7.13574 80.803 7.13574 58.5882 7.13574 36.3733Z" stroke="#FFFFFF" stroke-width="3" stroke-linejoin="round" stroke-miterlimit="10" fill-rule="evenodd"/></g></g><path d="M2056.41 549.651C2066.68 540.12 2076.95 530.589 2087.21 521.058 2098.61 530.814 2108.31 546.462 2118.58 565.02 2120.27 567.924 2123.33 575.807 2128.3 589.12 2128.38 589.366 2128.44 589.622 2128.53 589.868 2130.46 584.208 2133.37 575.586 2138.95 565.448 2148.94 546.934 2158.32 531.269 2169.38 521.231 2179.59 530.704 2189.79 540.177 2200 549.651 2200 571.865 2200 594.08 2200 616.295 2193.14 616.295 2186.29 616.295 2179.43 616.295 2179.43 597.351 2179.43 578.407 2179.43 559.463 2179.43 556.948 2179.49 554.464 2179.62 552.017 2179.75 549.577 2179.86 547.133 2179.99 544.686 2178.51 546.142 2177.41 547.493 2176.46 548.492 2175.49 549.507 2173.52 551.861 2170.31 555.589 2157.7 570.061 2147.39 591.323 2137.09 616.295 2134.15 616.295 2131.21 616.295 2128.26 616.295 2125.5 616.295 2122.74 616.295 2119.97 616.295 2109.32 590.947 2098.61 569.47 2085.54 555.192 2081.85 551.066 2078.96 547.489 2076.42 544.686 2076.55 547.092 2076.65 549.497 2076.75 551.898 2076.85 554.303 2076.89 556.764 2076.89 559.277 2076.89 578.283 2076.89 597.289 2076.89 616.295 2070.06 616.295 2063.24 616.295 2056.41 616.295 2056.41 594.08 2056.41 571.865 2056.41 549.651Z" stroke="#FFFFFF" stroke-width="3" stroke-linejoin="round" stroke-miterlimit="10" fill-rule="evenodd"/><text fill="#000000" fill-opacity="0" font-family="Arial,Arial_MSFontService,sans-serif" font-size="95.2374" x="2056.41" y="604.391">M</text><g clip-path="url(#clip4)" filter="url(#fx1)" transform="translate(2233 522)"><g><path d="M7.76343 37.3733C18.3995 27.5001 29.0355 17.6268 39.6716 7.75354 53.2287 9.7572 66.7626 18.4608 79.5473 30.1466 79.6571 30.3437 79.7001 30.6178 79.8613 30.7652 92.8853 19.0685 106.75 10.4762 120.538 8.77101 130.809 18.3051 141.08 27.8392 151.35 37.3733 133.103 32.9612 111.986 40.4373 94.2322 54.7585 94.2322 71.1783 94.2322 87.5981 94.2322 104.018 89.3404 104.018 84.4486 104.018 79.5568 104.018 74.665 104.018 69.7733 104.018 64.8815 104.018 64.8815 87.5981 64.8815 71.1783 64.8815 54.7585 47.1278 40.4373 26.011 32.9612 7.76343 37.3733Z" stroke="#FFFFFF" stroke-width="3" stroke-linejoin="round" stroke-miterlimit="10" fill-rule="evenodd"/></g></g><path d="M2231.04 549.651C2241.68 539.777 2252.31 529.904 2262.95 520.031 2276.51 522.034 2290.04 530.738 2302.82 542.424 2302.93 542.621 2302.98 542.895 2303.14 543.042 2316.16 531.346 2330.03 522.754 2343.82 521.048 2354.09 530.582 2364.36 540.117 2374.63 549.651 2356.38 545.239 2335.26 552.715 2317.51 567.036 2317.51 583.456 2317.51 599.875 2317.51 616.295 2312.62 616.295 2307.73 616.295 2302.83 616.295 2297.94 616.295 2293.05 616.295 2288.16 616.295 2288.16 599.875 2288.16 583.456 2288.16 567.036 2270.4 552.715 2249.29 545.239 2231.04 549.651Z" stroke="#FFFFFF" stroke-width="3" stroke-linejoin="round" stroke-miterlimit="10" fill-rule="evenodd"/><text fill="#000000" fill-opacity="0" font-family="Arial,Arial_MSFontService,sans-serif" font-size="96.2643" x="2231.04" y="604.262">Y</text><g clip-path="url(#clip5)" filter="url(#fx2)" transform="translate(2147 608)"><g><path d="M187.769 79.7703C183.497 78.2161 180.169 78.2617 177.646 80.2714 175.073 82.3217 173.779 86.1596 173.56 91.4975 182.962 93.8452 192.199 96.8555 201.601 99.2031 201.16 94.3855 199.945 90.3733 197.703 87.267 195.422 84.105 192.252 81.4013 187.769 79.7703ZM83.2467 50.5659C88.1127 48.4969 92.8417 46.1057 97.7077 44.0367 97.7077 72.8254 97.7077 101.614 97.7077 130.403 92.8873 130.44 88.0671 130.491 83.2467 130.528 83.2467 103.874 83.2467 77.2199 83.2467 50.5659ZM188.272 70.8305C197.538 74.8591 204.209 80.9117 209.335 87.4717 214.266 93.7822 216.628 100.815 216.628 108.713 216.628 109.135 216.628 109.557 216.628 109.979 202.175 107.227 187.887 103.604 173.434 100.853 173.652 107.573 175.011 112.965 177.804 116.746 180.534 120.442 184.204 122.471 188.901 122.766 192.088 122.966 194.914 122.471 197.42 121.332 199.906 120.203 202.11 118.202 204.179 115.443 207.995 117.357 211.721 119.37 215.559 121.035 213.03 123.682 210.601 125.82 208.14 127.298 205.649 128.794 202.78 129.975 199.495 130.799 196.2 131.626 192.296 132.088 187.769 132.088 178.338 132.088 171.03 129.055 165.952 122.592 160.671 115.872 158.281 106.149 158.281 94.1302 158.281 82.0175 160.812 73.5613 166.329 69.7282 171.651 66.0305 178.921 66.765 188.272 70.8305ZM123.371 21.5288C126.599 23.2814 129.763 25.1503 132.991 26.9029 132.991 33.6278 132.991 40.3527 132.991 47.0776 138.216 49.2995 143.295 51.8675 148.521 54.0894 148.521 58.2443 148.521 62.3993 148.521 66.5542 143.298 64.72 138.213 62.4973 132.991 60.663 132.991 75.6585 132.991 90.6539 132.991 105.649 132.991 113.893 135.691 118.26 141.101 118.621 143.66 118.791 146.404 118.691 149.338 118.271 149.338 122.084 149.338 125.897 149.338 129.711 144.549 131.135 139.739 131.931 134.877 131.927 129.847 131.923 125.868 129.997 122.962 126.047 120.001 122.024 118.593 116.179 118.593 108.707 118.593 90.8715 118.593 73.0363 118.593 55.2011 116.398 54.4302 114.26 53.496 112.065 52.7251 111.088 53.0685 110.096 53.4366 109.099 53.787 109.099 48.8226 109.099 43.8582 109.099 38.8938 110.066 38.4825 111.006 38.0072 111.973 37.5959 114.261 38.5688 116.49 39.688 118.781 40.662 120.355 34.1857 121.798 27.7865 123.371 21.5288ZM38.3319 47.1096C46.7246 41.8729 53.2815 39.3734 57.98 40.1344 62.7126 40.9009 65.9172 45.0273 67.7569 52.1393 62.9015 55.3247 58.2406 58.7574 53.3588 61.7818 51.4325 54.4013 46.4795 53.1417 38.2061 57.552 33.9428 59.8246 30.7756 62.6343 28.4292 65.6186 26.1145 68.5626 25.0026 71.596 25.0026 74.6964 25.0026 76.8455 25.5061 78.4022 26.543 79.3516 27.5915 80.3116 29.1138 80.9177 31.1642 81.1863 33.2191 81.4554 37.1707 81.1647 43.0474 80.8445 49.9215 80.4942 54.8336 80.7103 57.76 81.4696 60.7021 82.2331 63.0035 83.5225 64.739 85.1778 66.4977 86.8553 67.7289 89.1395 68.6372 91.8646 69.5549 94.6181 69.9575 98.0007 69.9575 101.951 69.9575 111.684 67.3921 119.483 61.8782 124.694 56.5309 129.748 48.7061 132.088 38.5205 132.088 29.5505 132.088 22.5612 130.37 17.3634 127.48 12.2824 124.656 8.95558 120.658 7.33496 115.178 12.1027 113.917 16.785 112.288 21.5445 110.879 23.7012 118.459 29.5026 121.923 39.275 121.23 49.9281 120.474 55.245 115.148 55.245 105.525 55.245 102.757 54.7506 100.581 53.6731 99.0796 52.6072 97.5941 51.1861 96.4623 49.3349 95.7829 47.4929 95.1069 45.3208 94.747 42.8274 94.639 40.3352 94.5311 37.6613 94.5733 34.8109 94.5835 27.9348 94.6528 22.9685 94.5823 19.8783 93.8602 16.8083 93.1429 14.4798 91.8884 12.7736 90.0898 11.104 88.3297 10.2901 85.6754 10.2901 82.1111 10.2901 76.6253 12.7798 70.9888 17.7092 64.9492 22.7768 58.7403 29.5195 52.6081 38.3319 47.1096ZM83.2467 17.0989C88.0461 14.0424 92.8455 10.9859 97.6449 7.92938 97.6449 13.4606 97.6449 18.9919 97.6449 24.5232 92.8121 27.1089 88.0794 29.8815 83.2467 32.4672 83.2467 27.3444 83.2467 22.2217 83.2467 17.0989Z" stroke="#FFFFFF" stroke-width="3" stroke-linejoin="round" stroke-miterlimit="10" fill-rule="evenodd"/></g></g><path d="M2325.05 678.048C2320.77 676.493 2317.45 676.539 2314.92 678.549 2312.35 680.599 2311.06 684.437 2310.84 689.775 2320.24 692.122 2329.48 695.133 2338.88 697.48 2338.44 692.663 2337.22 688.651 2334.98 685.544 2332.7 682.382 2329.53 679.679 2325.05 678.048ZM2220.52 648.843C2225.39 646.774 2230.12 644.383 2234.99 642.314 2234.99 671.103 2234.99 699.891 2234.99 728.68 2230.16 728.717 2225.34 728.768 2220.52 728.805 2220.52 702.151 2220.52 675.497 2220.52 648.843ZM2325.55 669.108C2334.82 673.136 2341.49 679.189 2346.61 685.749 2351.54 692.059 2353.91 699.093 2353.91 706.99 2353.91 707.412 2353.91 707.834 2353.91 708.256 2339.45 705.504 2325.16 701.882 2310.71 699.13 2310.93 705.85 2312.29 711.242 2315.08 715.023 2317.81 718.719 2321.48 720.748 2326.18 721.043 2329.37 721.243 2332.19 720.748 2334.7 719.609 2337.18 718.48 2339.39 716.479 2341.46 713.721 2345.27 715.635 2349 717.647 2352.84 719.312 2350.31 721.96 2347.88 724.097 2345.42 725.575 2342.93 727.071 2340.06 728.252 2336.77 729.076 2333.48 729.903 2329.57 730.365 2325.05 730.365 2315.62 730.365 2308.31 727.332 2303.23 720.869 2297.95 714.149 2295.56 704.426 2295.56 692.407 2295.56 680.295 2298.09 671.839 2303.61 668.005 2308.93 664.308 2316.2 665.042 2325.55 669.108ZM2260.65 619.806C2263.88 621.559 2267.04 623.428 2270.27 625.18 2270.27 631.905 2270.27 638.63 2270.27 645.355 2275.49 647.577 2280.57 650.145 2285.8 652.367 2285.8 656.522 2285.8 660.677 2285.8 664.832 2280.58 662.997 2275.49 660.775 2270.27 658.94 2270.27 673.936 2270.27 688.931 2270.27 703.927 2270.27 712.17 2272.97 716.537 2278.38 716.898 2280.94 717.069 2283.68 716.968 2286.62 716.548 2286.62 720.361 2286.62 724.175 2286.62 727.988 2281.83 729.412 2277.02 730.208 2272.15 730.204 2267.12 730.2 2263.15 728.274 2260.24 724.325 2257.28 720.301 2255.87 714.457 2255.87 706.984 2255.87 689.149 2255.87 671.314 2255.87 653.478 2253.68 652.708 2251.54 651.773 2249.34 651.002 2248.36 651.346 2247.37 651.714 2246.38 652.064 2246.38 647.1 2246.38 642.135 2246.38 637.171 2247.34 636.76 2248.28 636.284 2249.25 635.873 2251.54 636.846 2253.77 637.965 2256.06 638.939 2257.63 632.463 2259.08 626.064 2260.65 619.806ZM2175.61 645.387C2184 640.15 2190.56 637.651 2195.26 638.412 2199.99 639.178 2203.19 643.305 2205.03 650.417 2200.18 653.602 2195.52 657.035 2190.64 660.059 2188.71 652.679 2183.76 651.419 2175.48 655.829 2171.22 658.102 2168.05 660.912 2165.71 663.896 2163.39 666.84 2162.28 669.873 2162.28 672.974 2162.28 675.123 2162.78 676.68 2163.82 677.629 2164.87 678.589 2166.39 679.195 2168.44 679.464 2170.5 679.733 2174.45 679.442 2180.32 679.122 2187.2 678.771 2192.11 678.988 2195.04 679.747 2197.98 680.51 2200.28 681.8 2202.02 683.455 2203.77 685.133 2205.01 687.417 2205.91 690.142 2206.83 692.895 2207.23 696.278 2207.23 700.229 2207.23 709.961 2204.67 717.76 2199.16 722.972 2193.81 728.025 2185.98 730.365 2175.8 730.365 2166.83 730.365 2159.84 728.647 2154.64 725.758 2149.56 722.933 2146.23 718.935 2144.61 713.456 2149.38 712.194 2154.06 710.565 2158.82 709.157 2160.98 716.736 2166.78 720.2 2176.55 719.507 2187.21 718.751 2192.52 713.426 2192.52 703.802 2192.52 701.034 2192.03 698.858 2190.95 697.357 2189.88 695.871 2188.46 694.74 2186.61 694.06 2184.77 693.384 2182.6 693.024 2180.1 692.916 2177.61 692.808 2174.94 692.851 2172.09 692.861 2165.21 692.93 2160.25 692.86 2157.16 692.138 2154.09 691.42 2151.76 690.166 2150.05 688.367 2148.38 686.607 2147.57 683.953 2147.57 680.388 2147.57 674.903 2150.06 669.266 2154.99 663.227 2160.05 657.018 2166.8 650.885 2175.61 645.387ZM2220.52 615.376C2225.32 612.32 2230.12 609.263 2234.92 606.207 2234.92 611.738 2234.92 617.269 2234.92 622.8 2230.09 625.386 2225.36 628.159 2220.52 630.744 2220.52 625.622 2220.52 620.499 2220.52 615.376Z" stroke="#FFFFFF" stroke-width="3" stroke-linejoin="round" stroke-miterlimit="10" fill-rule="evenodd"/><text fill="#000000" fill-opacity="0" font-family="Arial,Arial_MSFontService,sans-serif" font-size="124.159" x="2144.61" y="714.846">Site</text></g></svg>